<svg width="24" height="25" fill="none" xmlns="http://www.w3.org/2000/svg"><g clip-path="url(#clip0_632_323)"><path d="M23.498 6.721a3.005 3.005 0 00-2.121-2.122C19.505 4.098 12 4.098 12 4.098s-7.505 0-9.377.501A3.006 3.006 0 00.501 6.721C0 8.593 0 12.498 0 12.498s0 3.905.501 5.776a3.006 3.006 0 002.122 2.122c1.872.502 9.377.502 9.377.502s7.505 0 9.377-.502a3.005 3.005 0 002.121-2.122C24 16.403 24 12.498 24 12.498s0-3.905-.502-5.777z" fill="#120D26"/><path d="M9.6 16.102l6.236-3.6-6.235-3.6v7.2z" fill="#fff"/></g><defs><clipPath id="clip0_632_323"><path fill="#fff" transform="translate(0 .5)" d="M0 0h24v24H0z"/></clipPath></defs></svg>